<svg width="40" height="24" fill="none" xmlns="http://www.w3.org/2000/svg"><path d="M36.667 0H3.333C1.493 0 0 1.465 0 3.273v17.454C0 22.535 1.492 24 3.333 24h33.334C38.507 24 40 22.535 40 20.727V3.273C40 1.465 38.508 0 36.667 0z" fill="#006FCF"/><path d="M25.555 13.09h3v.699H26.49v.61h2.01v.623h-2.01v.643h2.066v.698h-3v-3.272zm8.778 1.277c1.111 0 1.222.545 1.222 1.09a1.086 1.086 0 01-.385.655 1.124 1.124 0 01-.726.251h-1.977v-.709h1.5c.255 0 .633 0 .633-.305 0-.306-.067-.251-.333-.273h-.634c-1.01 0-1.255-.458-1.255-1.004a.961.961 0 01.273-.682.997.997 0 01.682-.3h2.022v.699h-1.377c-.323 0-.667 0-.667.284 0 .283.167.24.389.25h.644l-.01.044zm-3.444 0c1.11 0 1.222.545 1.222 1.09a1.085 1.085 0 01-.372.682c-.205.175-.468.27-.74.268h-1.977v-.71h1.5c.256 0 .633 0 .633-.304 0-.306-.066-.251-.333-.273h-.633c-1.011 0-1.256-.458-1.256-1.004a.963.963 0 01.298-.672.999.999 0 01.691-.277h2.022v.698h-1.4c-.322 0-.666 0-.666.284s.166.24.389.25h.633l-.011-.032zm-10.89-1.276h-3.166l-1.044 1.014-1.022-1.014h-3.6v3.272h3.488l1.112-1.09 1.11 1.09h1.756v-1.09h1.234c.275.04.556-.023.786-.177.23-.153.394-.386.458-.653a1.155 1.155 0 000-.338.982.982 0 00-.26-.7 1.018 1.018 0 00-.684-.325l-.167.01zm-5.866 2.574h-2.11v-.643h2.01V14.4h-1.966v-.611h2.222l.889.883-1.045.993zm3.5.371l-1.322-1.353 1.322-1.276v2.63zm2.056-1.462h-1.111v-.785h1.11a.418.418 0 01.31.054.398.398 0 01.126.555.411.411 0 01-.257.176.373.373 0 01-.19 0h.012zm4.733.295a.899.899 0 00.477-.345.872.872 0 00.156-.56.943.943 0 00-.317-.641.977.977 0 00-.683-.243h-2.433v3.272h.911v-1.145h1.2a.486.486 0 01.337.168.465.465 0 01.108.356v.589h.889v-.666a.633.633 0 00-.242-.688.661.661 0 00-.236-.108h-.111l-.056.01zm-.789-.338h-1.11v-.742h1.11a.43.43 0 01.437.176.41.41 0 01.063.151v.066c0 .218-.133.36-.5.36v-.011zM23.267 12V8.727h-.923V12h.923zm-8.49-3.273h3v.698H15.7v.622h2.078v.61H15.7v.645h2.078V12h-3V8.727zm6.445 1.778a.889.889 0 00.48-.342.861.861 0 00.153-.563.914.914 0 00-.319-.645.95.95 0 00-.692-.228h-2.5V12h.923v-1.157h1.21a.514.514 0 01.341.17.496.496 0 01.126.354v.6h.9v-.665a.643.643 0 00-.233-.693.67.67 0 00-.233-.115h-.134l-.022.011zm-.8-.338h-1.111v-.742h1.111a.44.44 0 01.317.065.426.426 0 01.183.262v.066c0 .218-.133.36-.511.36l.011-.011zm-7.778-1.44l-1.11 2.182-1.112-2.182H8.89v3.142L7.31 8.727H6.089L4.444 12h.978l.356-.731h1.844l.367.73h1.855V9.579L11.111 12h.833l1.267-2.378V12h.922V8.727h-1.489zm-6.51 1.833l.555-1.091.578 1.09H6.133zM32.81 8.727v2.258l-1.556-2.258H29.89v3.066L28.31 8.727h-1.222l-1.278 2.53h-.589a.686.686 0 01-.448-.258.66.66 0 01-.13-.494v-.25c0-.764.478-.819 1.111-.819h.578v-.709H25.1c-.394.073-.75.282-1.001.588a1.639 1.639 0 00.058 2.15c.268.293.634.482 1.032.535h1.222l.367-.731h1.844l.356.73h1.833V9.612L32.478 12h1.255V8.727h-.922zm-5.678 1.833l.556-1.091.578 1.09h-1.134z" fill="#fff"/></svg>
