<svg xmlns="http://www.w3.org/2000/svg" xmlns:xlink="http://www.w3.org/1999/xlink" viewBox="-15 -15 94 70">
  <!-- Background rectangle with padding -->
  <rect x="-15" y="-15" width="94" height="70" fill="white" rx="4"/>
  
  <!-- Original SVG content -->
  <defs>
    <polygon id="path-1" points="0 0 64 0 64 40 0 40"></polygon>
  </defs>
  <g id="Page-1" stroke="none" stroke-width="1" fill="none" fill-rule="evenodd">
    <g id="Icon-only">
      <g id="SRC_icon_black">
        <mask id="mask-2" fill="white">
          <use xlink:href="#path-1"></use>
        </mask>
        <g id="path-1"></g>
        <path d="M63.4745032,18.7215263 L48.1404827,0.915058974 C47.8171189,0.387187224 47.2324633,0.0346225351 46.5651268,0.0346225351 C45.5474385,0.0346225351 44.7223455,0.854347627 44.7223455,1.86595959 C44.7223455,2.39895157 44.9517425,2.87879065 45.3175508,3.21355643 L59.2089467,19.9494072 L45.4718724,36.3673158 L43.9740453,36.3673158 L39.5374838,36.3673158 L52.5196336,21.355521 C52.5279753,21.3462558 52.535581,21.3369906 52.5436773,21.3277255 L52.5463761,21.3287007 C52.9080137,20.9337113 53.0689595,20.4721587 53.0603725,20.0171894 C53.0689595,19.5624638 52.9080137,19.1009113 52.5463761,18.7059218 L52.5436773,18.7066533 C52.535581,18.6973881 52.5279753,18.6881229 52.5196336,18.6791015 L37.0173069,0.944073634 C37.0138721,0.939928682 37.0104372,0.935783731 37.0067571,0.93163878 C36.6858467,0.394501844 36.0960389,0.0346225351 35.4220781,0.0346225351 L24.5344328,0.0346225351 C23.5167445,0.0346225351 22.6916516,0.854347627 22.6916516,1.86595959 C22.6916516,2.17292981 22.7338508,2.49209107 22.9026477,2.7166499 L37.3311023,20.0852153 L25.0339539,34.7468837 C24.9608413,34.8195422 23.9011991,36.3202584 22.0380543,36.3202584 L7.35149745,36.3202584 C5.35414927,36.3202584 3.69782971,34.7712657 3.69782971,32.7136631 L3.69782971,7.29804029 C3.69782971,5.50693365 5.35414927,3.6673067 7.3966408,3.6673067 L16.5335089,3.6673067 C17.6105705,3.6673067 18.3762902,2.93633233 18.3762902,1.86595959 C18.3762902,0.795586846 17.6105705,0 16.5335089,0 L7.30709012,0.0363292798 C2.93628092,0.0363292798 0,3.61878638 0,7.26073573 L0,32.7136631 C0,36.6350309 3.47873723,39.9751303 7.30709012,39.9751303 L21.9894761,39.9751303 C22.7299253,39.9751303 23.407321,39.8673616 24.017247,39.6947365 C24.1043442,39.6701106 24.1902147,39.6440218 24.2743678,39.6169577 C26.2987039,38.9649813 27.5205186,37.6254305 27.7570306,37.3416232 L41.5964134,21.3128524 C42.2509921,20.5748072 42.3380893,19.5044345 41.6072086,18.7059218 L41.6045098,18.7066533 C41.5964134,18.6973881 41.5888077,18.6881229 41.5807114,18.6791015 L28.4898741,3.6673067 L33.0351231,3.6673067 L34.5329502,3.6673067 L48.2133499,20.0174332 L33.8172808,37.2748164 C33.8126193,37.2799366 33.8214517,37.2948097 33.8418152,37.3179726 C33.7073665,37.5722776 33.6308191,37.8614489 33.6308191,38.1686629 C33.6308191,39.1800311 34.4559121,40 35.473355,40 L46.3610003,40 C47.0352065,40 47.6245236,39.639633 47.9459246,39.1027399 C47.9493595,39.098595 47.9527943,39.09445 47.9562291,39.0905489 L63.4588012,21.355521 C63.4668975,21.3462558 63.4745032,21.3369906 63.4825996,21.3277255 L63.4852983,21.3287007 C64.2159337,20.5299442 64.1290819,19.4595715 63.4745032,18.7215263" id="Fill-1" fill="#000000" fill-rule="nonzero" mask="url(#mask-2)"></path>
      </g>
    </g>
  </g>
</svg>