<?xml version="1.0" encoding="utf-8"?>
<!-- Generator: Adobe Illustrator 25.3.1, SVG Export Plug-In . SVG Version: 6.00 Build 0)  -->
<svg version="1.1" id="Layer_1" xmlns="http://www.w3.org/2000/svg" xmlns:xlink="http://www.w3.org/1999/xlink" x="0px" y="0px"
	 viewBox="0 0 40 24" style="enable-background:new 0 0 40 24;" xml:space="preserve">
<g>
	<g>
		<polygon points="13.4,6.8 13.2,6.8 11.9,6.8 11.8,6.8 11.8,6.9 10.5,14.1 8,6.9 7.9,6.8 7.9,6.8 6.5,6.8 6.4,6.8 6.4,6.9 
			4.6,17.1 4.6,17.2 4.7,17.2 6.1,17.2 6.2,17.2 6.2,17.1 7.5,9.9 10.1,17.1 10.1,17.2 10.1,17.2 11.5,17.2 11.6,17.2 11.6,17.1 
			13.4,6.9 		"/>
		<path d="M19.1,6.9L19.1,6.9L19,6.8h-1.6h-0.1l0,0.1L12.7,17l-0.1,0.2h0.2h1.4h0.1l0-0.1l0.9-2h3.3l0.2,2l0,0.1h0.1h1.4h0.1l0-0.2
			L19.1,6.9z M18.3,13.5h-2.4l1.9-4.2L18.3,13.5z"/>
		<path d="M28.3,7.8c-0.5-0.7-1.2-1-2.2-1h-2.8h-0.1l0,0.1l-1.7,10.2l0,0.2h0.1h1.4h0.1l0-0.1l0.7-4H25c2.2,0,3.3-1.6,3.5-3.1
			C28.7,9.1,28.6,8.4,28.3,7.8z M24.4,8.4h1.4c0.5,0,0.8,0.1,1,0.4C27,9.1,27,9.5,27,9.9c-0.2,1-0.7,1.5-1.7,1.5h-1.4L24.4,8.4z"/>
		<path d="M35,7.6c-0.4-0.6-1.1-0.9-2-0.9c-1.8,0-3.1,1.2-3.4,3c-0.4,2.2,1,2.7,2.1,3.1c1,0.4,1.6,0.6,1.5,1.5
			c-0.2,0.8-0.8,1.4-1.6,1.4c-0.4,0-0.7-0.1-0.9-0.4c-0.2-0.2-0.2-0.6-0.2-0.9l0-0.2h-0.1h-1.4h-0.1l0,0.1c-0.1,0.8,0,1.5,0.3,2
			c0.4,0.7,1.2,1.1,2.2,1.1c1.9,0,3.2-1.5,3.5-3.1c0.4-2.2-1-2.7-2.1-3.1c-1-0.4-1.6-0.6-1.4-1.5c0.2-0.8,0.7-1.3,1.4-1.3
			c0,0,0,0,0.1,0c0.4,0,0.7,0.2,0.9,0.4c0.1,0.2,0.2,0.5,0.2,0.8l0,0.2h0.1h1.5h0.1l0-0.1C35.5,8.8,35.3,8.1,35,7.6z"/>
	</g>
	<g>
		<path d="M37.2,24H2.8C1.2,24,0,22.6,0,20.9V3.1C0,1.4,1.2,0,2.8,0h34.5C38.8,0,40,1.4,40,3.1v17.7C40,22.6,38.8,24,37.2,24z
			 M2.8,0.7c-1.2,0-2.1,1.1-2.1,2.4v17.7c0,1.3,0.9,2.4,2.1,2.4h34.5c1.2,0,2.1-1.1,2.1-2.4V3.1c0-1.3-0.9-2.4-2.1-2.4H2.8z"/>
	</g>
</g>
</svg>
